<svg xmlns="http://www.w3.org/2000/svg" viewBox="0 0 600 600" width="600" height="600">
  <!-- Motif Dayak Borneo yang lebih khas -->
  <defs>
    <!-- Pattern Utama -->
    <pattern id="dayak-motif" x="0" y="0" width="300" height="300" patternUnits="userSpaceOnUse">
      
      <!-- Motif Mandau (Pedang) Stylized -->
      <g transform="translate(150, 50)">
        <path d="M -5 0 L -3 40 L 0 45 L 3 40 L 5 0 Z" fill="#8B3A3A" opacity="0.7"/>
        <circle cx="0" cy="-5" r="8" fill="none" stroke="#8B3A3A" stroke-width="3" opacity="0.7"/>
        <path d="M -10 -5 L 10 -5" stroke="#8B3A3A" stroke-width="2" opacity="0.7"/>
      </g>
      
      <!-- Motif Aso (Anjing Dayak) - Spiral Ganda -->
      <g transform="translate(50, 150)">
        <path d="M 0 0 Q 15 -15 30 0 T 60 0" fill="none" stroke="#8B3A3A" stroke-width="4" opacity="0.6"/>
        <circle cx="0" cy="0" r="6" fill="#8B3A3A" opacity="0.7"/>
        <circle cx="60" cy="0" r="6" fill="#8B3A3A" opacity="0.7"/>
        <path d="M 30 -5 L 30 15" stroke="#8B3A3A" stroke-width="3" opacity="0.6"/>
      </g>
      
      <g transform="translate(250, 150)">
        <path d="M 0 0 Q -15 -15 -30 0 T -60 0" fill="none" stroke="#8B3A3A" stroke-width="4" opacity="0.6"/>
        <circle cx="0" cy="0" r="6" fill="#8B3A3A" opacity="0.7"/>
        <circle cx="-60" cy="0" r="6" fill="#8B3A3A" opacity="0.7"/>
        <path d="M -30 -5 L -30 15" stroke="#8B3A3A" stroke-width="3" opacity="0.6"/>
      </g>
      
      <!-- Motif Belah Ketupat Berlapis (Khas Dayak) -->
      <g transform="translate(150, 150)">
        <path d="M 0 -40 L 30 0 L 0 40 L -30 0 Z" fill="none" stroke="#8B3A3A" stroke-width="4" opacity="0.7"/>
        <path d="M 0 -30 L 20 0 L 0 30 L -20 0 Z" fill="none" stroke="#8B3A3A" stroke-width="3" opacity="0.6"/>
        <path d="M 0 -20 L 10 0 L 0 20 L -10 0 Z" fill="#8B3A3A" opacity="0.5"/>
        <circle cx="0" cy="0" r="5" fill="#8B3A3A" opacity="0.8"/>
      </g>
      
      <!-- Motif Naga/Ular (Representasi Kekuatan) -->
      <g transform="translate(50, 250)">
        <path d="M 0 0 Q 25 -10 50 0 Q 75 10 100 0 Q 125 -10 150 0 Q 175 10 200 0" 
              fill="none" stroke="#8B3A3A" stroke-width="5" opacity="0.5"/>
        <circle cx="0" cy="0" r="8" fill="#8B3A3A" opacity="0.6"/>
        <circle cx="100" cy="0" r="8" fill="#8B3A3A" opacity="0.6"/>
        <circle cx="200" cy="0" r="8" fill="#8B3A3A" opacity="0.6"/>
      </g>
      
      <!-- Ornamen Sudut (Motif Tumpal) -->
      <g transform="translate(20, 20)">
        <path d="M 0 0 L 15 0 L 7.5 15 Z" fill="#8B3A3A" opacity="0.5"/>
        <path d="M 5 5 L 10 5 L 7.5 10 Z" fill="#8B3A3A" opacity="0.7"/>
      </g>
      
      <g transform="translate(280, 20)">
        <path d="M 0 0 L -15 0 L -7.5 15 Z" fill="#8B3A3A" opacity="0.5"/>
        <path d="M -5 5 L -10 5 L -7.5 10 Z" fill="#8B3A3A" opacity="0.7"/>
      </g>
      
      <g transform="translate(20, 280)">
        <path d="M 0 0 L 15 0 L 7.5 -15 Z" fill="#8B3A3A" opacity="0.5"/>
        <path d="M 5 -5 L 10 -5 L 7.5 -10 Z" fill="#8B3A3A" opacity="0.7"/>
      </g>
      
      <g transform="translate(280, 280)">
        <path d="M 0 0 L -15 0 L -7.5 -15 Z" fill="#8B3A3A" opacity="0.5"/>
        <path d="M -5 -5 L -10 -5 L -7.5 -10 Z" fill="#8B3A3A" opacity="0.7"/>
      </g>
      
      <!-- Garis-garis Dekoratif Khas Dayak -->
      <line x1="150" y1="10" x2="150" y2="30" stroke="#8B3A3A" stroke-width="4" opacity="0.5"/>
      <line x1="150" y1="270" x2="150" y2="290" stroke="#8B3A3A" stroke-width="4" opacity="0.5"/>
      <line x1="10" y1="150" x2="30" y2="150" stroke="#8B3A3A" stroke-width="4" opacity="0.5"/>
      <line x1="270" y1="150" x2="290" y2="150" stroke="#8B3A3A" stroke-width="4" opacity="0.5"/>
      
      <!-- Titik-titik Ornamen -->
      <circle cx="75" cy="75" r="4" fill="#8B3A3A" opacity="0.6"/>
      <circle cx="225" cy="75" r="4" fill="#8B3A3A" opacity="0.6"/>
      <circle cx="75" cy="225" r="4" fill="#8B3A3A" opacity="0.6"/>
      <circle cx="225" cy="225" r="4" fill="#8B3A3A" opacity="0.6"/>
    </pattern>
  </defs>
  
  <rect width="600" height="600" fill="url(#dayak-motif)"/>
</svg>
